<svg width="80" height="89" viewBox="0 0 80 89" fill="none" xmlns="http://www.w3.org/2000/svg">
<path d="M19.0391 88.8C15.8391 88.8 12.7724 87.9333 9.83906 86.2C7.03906 84.4667 4.7724 82.2 3.03906 79.4C1.30573 76.6 0.439063 73.7333 0.439063 70.8C0.439063 66.2667 1.7724 62.6 4.43906 59.8C7.10573 56.8667 11.1057 54.2667 16.4391 52L35.0391 44C37.7057 42.9333 39.3057 41.9333 39.8391 41C40.5057 40.0667 40.8391 38.3333 40.8391 35.8L41.2391 24C41.3724 20.2667 40.5724 17.2667 38.8391 15C37.2391 12.7333 34.7724 11.6 31.4391 11.6C29.7057 11.6 27.9057 11.9333 26.0391 12.6C24.1724 13.2667 22.7057 14.1333 21.6391 15.2C21.1057 15.7333 20.7057 16.4667 20.4391 17.4C20.3057 18.2 20.2391 19 20.2391 19.8C20.2391 20.4667 20.2391 21.3333 20.2391 22.4C20.3724 23.3333 20.4391 24.2 20.4391 25C20.4391 25.8 19.4391 26.8 17.4391 28C15.4391 29.2 13.1724 30.2667 10.6391 31.2C8.10573 32.1333 5.9724 32.6 4.23906 32.6C3.30573 32.6 2.5724 32.2667 2.03906 31.6C1.50573 30.9333 1.23906 30.1333 1.23906 29.2C1.23906 27.0667 1.90573 24.9333 3.23906 22.8C4.70573 20.5333 6.9724 18.1333 10.0391 15.6C13.3724 12.8 17.0391 10.3333 21.0391 8.19999C25.0391 5.93333 28.9057 4.13333 32.6391 2.8C36.5057 1.46666 39.8391 0.799994 42.6391 0.799994C49.0391 0.799994 54.1724 2.93333 58.0391 7.2C61.9057 11.3333 63.7724 16.8 63.6391 23.6L62.6391 66.4C62.5057 69.3333 63.0391 71.8 64.2391 73.8C65.5724 75.8 67.1724 76.8 69.0391 76.8C71.8391 76.8 74.1057 76 75.8391 74.4C76.3724 73.8667 76.8391 73.6 77.2391 73.6C77.9057 73.6 78.4391 73.8667 78.8391 74.4C79.3724 74.8 79.6391 75.3333 79.6391 76C79.6391 77.4667 78.5724 79.2667 76.4391 81.4C74.0391 83.8 71.4391 85.6 68.6391 86.8C65.9724 88.1333 63.3057 88.8 60.6391 88.8C53.5724 88.8 47.8391 85.1333 43.4391 77.8H42.8391C38.4391 81.6667 34.3724 84.4667 30.6391 86.2C27.0391 87.9333 23.1724 88.8 19.0391 88.8ZM30.0391 76.8C31.9057 76.8 33.5057 76.5333 34.8391 76C36.1724 75.3333 37.3057 74.4667 38.2391 73.4C38.7724 72.7333 39.1724 71.9333 39.4391 71C39.8391 70.0667 40.1057 68.7333 40.2391 67L40.6391 54.2C40.7724 52.8667 40.6391 52 40.2391 51.6C39.8391 51.0667 39.3724 50.8 38.8391 50.8C38.5724 50.8 38.1724 50.8667 37.6391 51C37.1057 51 36.5057 51.2 35.8391 51.6C30.9057 53.6 27.3724 55.7333 25.2391 58C23.1057 60.2667 22.0391 63.2 22.0391 66.8C22.0391 70.4 22.9057 73 24.6391 74.6C26.3724 76.0667 28.1724 76.8 30.0391 76.8Z" fill="#363636"/>
</svg>
