<svg width="125" height="136" viewBox="0 0 125 136" fill="none" xmlns="http://www.w3.org/2000/svg">
<path d="M74.2031 135.8C64.2031 135.8 54.7365 134.267 45.8031 131.2C36.8698 128 28.9365 123.467 22.0031 117.6C15.2031 111.733 9.80313 104.733 5.80313 96.6C1.93646 88.3333 0.00312537 79.2 0.00312537 69.2C0.00312537 59.8667 1.93646 51.0667 5.80313 42.8C9.66979 34.5333 15.1365 27.2 22.2031 20.8C29.2698 14.4 37.6698 9.39999 47.4031 5.79999C57.2698 2.06666 68.0698 0.199993 79.8031 0.199993C84.3365 0.199993 88.6031 0.533326 92.6031 1.19999C96.7365 1.73333 100.736 2.46666 104.603 3.4C108.47 4.2 112.27 5.26666 116.003 6.59999C117.47 7.13333 118.603 7.86666 119.403 8.79999C120.336 9.73333 120.87 11 121.003 12.6C121.536 16.6 121.936 20.6 122.203 24.6C122.47 28.4667 122.603 32.3333 122.603 36.2C122.736 37.5333 122.27 38.5333 121.203 39.2C120.136 39.7333 119.003 39.8 117.803 39.4C116.603 38.8667 115.736 37.8667 115.203 36.4C114.136 32.6667 112.87 29.2 111.403 26C110.07 22.6667 108.003 19.8667 105.203 17.6C102.136 15.0667 98.2698 13.0667 93.6031 11.6C88.9365 9.99999 83.4698 9.2 77.2031 9.2C70.0031 9.2 63.4698 10.6667 57.6031 13.6C51.7365 16.5333 46.6698 20.6 42.4031 25.8C38.2698 31 35.0698 36.8667 32.8031 43.4C30.5365 49.9333 29.4031 56.8 29.4031 64C29.4031 72.5333 30.4031 80.6 32.4031 88.2C34.5365 95.8 37.6698 102.533 41.8031 108.4C46.0698 114.133 51.2031 118.667 57.2031 122C63.2031 125.2 70.0698 126.8 77.8031 126.8C87.6698 126.8 95.6698 124.667 101.803 120.4C107.936 116.133 113.136 109.8 117.403 101.4C118.47 99.2667 119.936 98.2667 121.803 98.4C123.67 98.4 124.603 99.4667 124.603 101.6C124.603 103.2 124.403 105.2 124.003 107.6C123.603 110 123.003 112.6 122.203 115.4C121.536 118.067 120.736 120.733 119.803 123.4C119.27 125 118.603 126.2 117.803 127C117.003 127.8 115.803 128.533 114.203 129.2C109.136 131.333 103.136 132.933 96.2031 134C89.4031 135.2 82.0698 135.8 74.2031 135.8Z" fill="#363636"/>
</svg>
