<svg width="103" height="142" viewBox="0 0 103 142" fill="none" xmlns="http://www.w3.org/2000/svg">
<path d="M4.41563 141.6C1.74896 141.6 0.415625 140.733 0.415625 139C0.415625 137.533 1.94896 136.267 5.01563 135.2C7.01563 134.533 8.81563 133.8 10.4156 133C12.149 132.067 13.0156 130.2 13.0156 127.4V30C13.0156 26.4 12.4823 23.2667 11.4156 20.6C10.4823 17.9333 8.28229 16.2667 4.81563 15.6C3.48229 15.3333 2.81563 14.3333 2.81563 12.6C2.81563 11.1333 3.41563 10.2 4.61563 9.8C7.28229 9.13333 10.349 8.26666 13.8156 7.19999C17.4156 5.99999 20.8823 4.79999 24.2156 3.59999C27.6823 2.26666 30.4823 1.26666 32.6156 0.599996C33.549 0.199993 34.2156 -8.58307e-06 34.6156 -8.58307e-06C35.4156 -8.58307e-06 35.949 0.199993 36.2156 0.599996C36.4823 0.99999 36.6156 1.46666 36.6156 1.99999C36.6156 2.8 36.4823 3.86666 36.2156 5.2C35.949 6.53333 35.6823 8.39999 35.4156 10.8C35.2823 13.0667 35.2156 16.2 35.2156 20.2V62.8C35.2156 64.4 35.2823 65.7333 35.4156 66.8C35.549 67.7333 35.8823 68.4667 36.4156 69C38.4156 67.4 40.8823 65.6 43.8156 63.6C46.749 61.4667 50.0823 59.6667 53.8156 58.2C57.549 56.6 61.6156 55.8 66.0156 55.8C72.949 55.8 78.6823 58.3333 83.2156 63.4C87.8823 68.4667 90.2156 75.2667 90.2156 83.8V126.8C90.2156 129.6 91.0156 131.533 92.6156 132.6C94.2156 133.667 95.949 134.533 97.8156 135.2C99.2823 135.733 100.349 136.267 101.016 136.8C101.816 137.333 102.216 138.067 102.216 139C102.216 140.733 100.816 141.6 98.0156 141.6C94.949 141.6 92.4823 141.467 90.6156 141.2C88.8823 141.067 87.2156 140.933 85.6156 140.8C84.0156 140.667 81.8156 140.6 79.0156 140.6C76.349 140.6 74.2156 140.667 72.6156 140.8C71.149 140.933 69.6156 141.067 68.0156 141.2C66.4156 141.467 64.0823 141.6 61.0156 141.6C58.0823 141.6 56.6156 140.667 56.6156 138.8C56.6156 137.867 57.0156 137.133 57.8156 136.6C58.6156 136.067 59.6156 135.6 60.8156 135.2C62.6823 134.667 64.349 133.8 65.8156 132.6C67.2823 131.4 68.0156 129.4 68.0156 126.6V86.8C68.0156 83.7333 67.2823 81 65.8156 78.6C64.349 76.0667 62.4823 74.0667 60.2156 72.6C58.0823 71.1333 55.749 70.4 53.2156 70.4C51.0823 70.4 48.6823 70.7333 46.0156 71.4C43.349 72.0667 40.949 73.2 38.8156 74.8C37.349 75.8667 36.349 77.0667 35.8156 78.4C35.4156 79.6 35.2156 81.6 35.2156 84.4V127.2C35.349 129.867 36.0823 131.733 37.4156 132.8C38.8823 133.733 40.4823 134.533 42.2156 135.2C43.549 135.6 44.549 136.067 45.2156 136.6C46.0156 137.133 46.4156 137.867 46.4156 138.8C46.4156 140.667 45.2156 141.6 42.8156 141.6C40.149 141.6 37.8156 141.467 35.8156 141.2C33.8156 141.067 31.8823 140.933 30.0156 140.8C28.2823 140.667 26.2156 140.6 23.8156 140.6C21.549 140.6 19.4156 140.667 17.4156 140.8C15.549 140.933 13.549 141.067 11.4156 141.2C9.41563 141.467 7.08229 141.6 4.41563 141.6Z" fill="#363636"/>
</svg>
