<svg width="49" height="129" viewBox="0 0 49 129" fill="none" xmlns="http://www.w3.org/2000/svg">
<path d="M4.14063 128.6C3.07396 128.6 2.20729 128.4 1.54063 128C0.873959 127.467 0.540625 126.8 0.540625 126C0.540625 124.933 0.940625 124.133 1.74063 123.6C2.54063 123.067 3.47396 122.667 4.54063 122.4C7.74063 121.6 10.0073 120.733 11.3406 119.8C12.8073 118.867 13.5406 117.267 13.5406 115V71.6C13.5406 67.3333 12.874 64.1333 11.5406 62C10.2073 59.8667 7.94063 58.5333 4.74063 58C4.07396 57.8667 3.54063 57.5333 3.14063 57C2.74063 56.3333 2.54063 55.6 2.54063 54.8C2.54063 52.9333 3.27396 51.9333 4.74063 51.8C11.1406 50.4667 16.674 48.6667 21.3406 46.4C26.1406 44 29.8073 42.1333 32.3406 40.8C34.2073 39.8667 35.4073 39.4 35.9406 39.4C37.4073 39.4 38.1406 40.0667 38.1406 41.4C38.0073 43.2667 37.7406 45.8667 37.3406 49.2C36.9406 52.4 36.5406 55.8667 36.1406 59.6C35.874 63.2 35.7406 66.6 35.7406 69.8V114.8C35.7406 116.8 36.474 118.333 37.9406 119.4C39.4073 120.467 41.7406 121.467 44.9406 122.4C46.0073 122.8 46.9406 123.267 47.7406 123.8C48.5406 124.2 48.9406 124.933 48.9406 126C48.9406 127.6 47.8073 128.4 45.5406 128.4C43.0073 128.4 40.5406 128.333 38.1406 128.2C35.874 128.067 33.6073 127.933 31.3406 127.8C29.2073 127.667 26.9406 127.6 24.5406 127.6C22.274 127.6 20.074 127.667 17.9406 127.8C15.8073 127.933 13.6073 128.067 11.3406 128.2C9.20729 128.467 6.80729 128.6 4.14063 128.6ZM24.1406 27.8C20.274 27.8 17.0073 26.4667 14.3406 23.8C11.674 21.1333 10.3406 17.9333 10.3406 14.2C10.3406 10.0667 11.674 6.66666 14.3406 4C17.0073 1.33333 20.274 -9.05991e-06 24.1406 -9.05991e-06C28.1406 -9.05991e-06 31.474 1.33333 34.1406 4C36.8073 6.66666 38.1406 10.0667 38.1406 14.2C38.1406 17.9333 36.8073 21.1333 34.1406 23.8C31.474 26.4667 28.1406 27.8 24.1406 27.8Z" fill="#363636"/>
</svg>
