<?xml version="1.0" encoding="utf-8"?>
<!-- Generator: Adobe Illustrator 28.3.0, SVG Export Plug-In . SVG Version: 6.00 Build 0)  -->
<svg version="1.1" id="icon-instagram" xmlns="http://www.w3.org/2000/svg" xmlns:xlink="http://www.w3.org/1999/xlink" x="0px"
	 y="0px" viewBox="0 0 24 24" style="enable-background:new 0 0 24 24;" xml:space="preserve">
<style type="text/css">
	.st0{fill:none;stroke:#363636;stroke-width:0.5;stroke-miterlimit:10;}
</style>
<g id="openmoji:instagram">
	<path id="Vector" class="st0" d="M17.4,0.3H6.6c-3.5,0-6.3,2.8-6.3,6.3v10.8c0,3.5,2.8,6.3,6.3,6.3h10.8c3.5,0,6.3-2.8,6.3-6.3V6.6
		C23.8,3.1,20.9,0.3,17.4,0.3z"/>
	<path id="Vector_2" class="st0" d="M12,17.7c3.1,0,5.7-2.5,5.7-5.7c0-3.1-2.5-5.7-5.7-5.7c-3.1,0-5.7,2.5-5.7,5.7
		C6.3,15.1,8.9,17.7,12,17.7z"/>
	<path id="Vector_3" class="st0" d="M18.9,6.3c0.7,0,1.2-0.5,1.2-1.2s-0.5-1.2-1.2-1.2c-0.7,0-1.2,0.5-1.2,1.2S18.2,6.3,18.9,6.3z"
		/>
</g>
</svg>
