<svg width="103" height="142" viewBox="0 0 103 142" fill="none" xmlns="http://www.w3.org/2000/svg">
<path d="M4.30313 141.6C1.50313 141.6 0.103125 140.733 0.103125 139C0.103125 137.933 0.503125 137.2 1.30313 136.8C2.23646 136.267 3.36979 135.733 4.70313 135.2C6.70313 134.533 8.50313 133.8 10.1031 133C11.8365 132.067 12.7031 130.2 12.7031 127.4V30C12.7031 25.8667 12.1031 22.6 10.9031 20.2C9.83646 17.8 7.63646 16.2667 4.30313 15.6C2.96979 15.3333 2.30313 14.3333 2.30313 12.6C2.30313 11 2.90313 10.0667 4.10313 9.8C7.56979 9.13333 11.0365 8.2 14.5031 7C17.9698 5.8 21.2365 4.6 24.3031 3.4C27.3698 2.19999 29.9031 1.26666 31.9031 0.599996C32.9698 0.199993 33.7698 -8.58307e-06 34.3031 -8.58307e-06C34.9698 -8.58307e-06 35.4365 0.199993 35.7031 0.599996C35.9698 0.99999 36.1031 1.53332 36.1031 2.2C36.1031 3.39999 35.9031 5.53332 35.5031 8.59999C35.1031 11.5333 34.8365 15.4 34.7031 20.2L34.9031 92C34.9031 93.4667 35.3698 94.2 36.3031 94.2C36.8365 94.2 37.5031 94 38.3031 93.6C39.2365 93.2 40.1031 92.6 40.9031 91.8C45.9698 87.4 50.3698 83.1333 54.1031 79C57.9698 74.8667 60.5698 71.8667 61.9031 70C62.5698 69.2 63.0365 68.5333 63.3031 68C63.5698 67.4667 63.7031 67 63.7031 66.6C63.7031 65.9333 63.1698 65.3333 62.1031 64.8C61.0365 64.1333 59.5698 63.6667 57.7031 63.4C56.1031 63 55.3031 62.2 55.3031 61C55.3031 60.0667 55.7698 59.4 56.7031 59C57.6365 58.6 58.6365 58.4 59.7031 58.4H69.5031C71.7698 58.4 74.5698 58.2667 77.9031 58C81.3698 57.7333 84.6365 57.4667 87.7031 57.2C90.9031 56.8 93.3031 56.5333 94.9031 56.4C96.5031 56.4 97.3031 57.1333 97.3031 58.6C97.3031 59.5333 96.8365 60.3333 95.9031 61C95.1031 61.6667 93.9698 62.2 92.5031 62.6C90.1031 63.1333 87.5031 64.0667 84.7031 65.4C82.0365 66.6 79.3031 68 76.5031 69.6C74.7698 70.5333 72.5698 72 69.9031 74C67.2365 76 64.4365 78.2 61.5031 80.6C58.7031 82.8667 56.1031 85.1333 53.7031 87.4C53.0365 88.0667 52.7031 88.7333 52.7031 89.4C52.7031 89.8 52.7698 90.1333 52.9031 90.4C53.1698 90.6667 53.4365 91 53.7031 91.4C57.0365 95.5333 60.3031 99.6667 63.5031 103.8C66.8365 107.933 70.0365 111.8 73.1031 115.4C76.1698 119 78.9031 122.2 81.3031 125C83.5698 127.267 86.2365 129.4 89.3031 131.4C92.5031 133.267 95.1031 134.533 97.1031 135.2C98.4365 135.733 99.7031 136.267 100.903 136.8C102.236 137.2 102.903 137.933 102.903 139C102.903 140.733 101.503 141.6 98.7031 141.6C91.5031 141.6 84.2365 141.467 76.9031 141.2C69.7031 141.067 62.7698 141 56.1031 141C53.5698 141 52.3031 140.2 52.3031 138.6C52.3031 137.667 52.6365 136.933 53.3031 136.4C54.1031 135.733 55.1031 135.2 56.3031 134.8C57.5031 134.4 58.4365 133.933 59.1031 133.4C59.7698 132.733 60.1698 132 60.3031 131.2C60.3031 130.667 60.1031 130.133 59.7031 129.6C59.3031 128.933 58.7698 128.133 58.1031 127.2L37.3031 100.4C36.7698 99.7333 36.3031 99.4 35.9031 99.4C35.2365 99.5333 34.9031 100.067 34.9031 101C34.7698 102.867 34.7031 104.867 34.7031 107C34.7031 109.133 34.7031 111.267 34.7031 113.4C34.7031 115.667 34.7031 118 34.7031 120.4C34.7031 122.8 34.7698 125.133 34.9031 127.4C34.9031 129.8 35.4365 131.533 36.5031 132.6C37.5698 133.667 39.1031 134.533 41.1031 135.2C42.1698 135.6 43.1698 136.067 44.1031 136.6C45.0365 137 45.5031 137.733 45.5031 138.8C45.5031 139.733 45.0365 140.467 44.1031 141C43.1698 141.4 42.3031 141.6 41.5031 141.6C38.9698 141.6 36.7698 141.467 34.9031 141.2C33.0365 141.067 31.2365 140.933 29.5031 140.8C27.7698 140.667 25.7031 140.6 23.3031 140.6C21.0365 140.6 18.9698 140.667 17.1031 140.8C15.2365 140.933 13.3031 141.067 11.3031 141.2C9.30313 141.467 6.96979 141.6 4.30313 141.6Z" fill="#363636"/>
</svg>
