<?xml version="1.0" encoding="UTF-8"?>
<svg id="_レイヤー_2" data-name="レイヤー 2" xmlns="http://www.w3.org/2000/svg" viewBox="0 0 91.83 91.83">
  <defs>
    <style>
      .cls-1 {
        fill: #353636;
        stroke-width: 0px;
      }
    </style>
  </defs>
  <g id="card用">
    <g id="logo">
      <path class="cls-1" d="M38.51,53.71c-.41-2.62-.71-4.89-.61-8.21.05-1.48.29-3.64.48-5.23-.24.05-.49.09-.72.15-1.03.25-2.01.51-2.96.77-.14,1.22-.24,2.6-.28,4.18-.22,7.55,2.31,19.82,8.33,29.61.4-.59.8-1.18,1.18-1.8.31-.51.61-1.03.91-1.55-.96-1.77-1.85-3.62-2.64-5.53-1.75-4.2-2.98-8.37-3.68-12.39Z"/>
      <path class="cls-1" d="M83.11,8.75C77.34,3,71.44.08,65.57.08c-9.01,0-15.81,6.78-19.94,12.47-.54.74-1.06,1.51-1.57,2.3-3.49,5.4-6.36,12.14-8.02,18.66,1.24-.25,2.46-.45,3.65-.61.65-2.3,1.45-4.62,2.4-6.93,1.21-2.92,2.62-5.72,4.21-8.3.51-.82,1.03-1.62,1.55-2.37,3.75-5.4,9.87-11.83,17.72-11.83,4.93,0,10.03,2.59,15.14,7.69,7.13,7.12,9.34,14.15,6.54,20.91-1.53,3.71-4.61,7.38-8.9,10.68.22.14.45.28.66.43.78.53,1.52,1.06,2.23,1.61,4.78-3.87,9.93-9.68,10.52-17.09.5-6.33-2.41-12.7-8.67-18.94Z"/>
      <path class="cls-1" d="M50.74,34.67c-1.63-.16-3.58-.28-6.15-.26-8.18.05-19.18,3.34-27.78,8.36,1.03.7,2.14,1.37,3.29,2.03.46-.25.93-.5,1.4-.74,4.92-2.5,10.55-4.19,15.7-5.46,5.82-1.43,11.74-.84,14.3-.46-.2-1.13-.47-2.29-.76-3.46Z"/>
      <path class="cls-1" d="M32.93,52.13c-3.89-1.09-7.77-2.59-11.35-4.41-8.51-4.32-14.52-9.89-16.92-15.68-2.8-6.75-.62-13.8,6.5-20.93,5.11-5.13,10.21-7.73,15.15-7.73,7.05,0,12.71,5.25,16.43,10.08.45-.69.91-1.37,1.38-2.02.21-.29.43-.58.66-.88C40.62,5.42,34.34,0,26.3,0c-5.87,0-11.78,2.93-17.55,8.72C1.26,16.24-1.41,23.86.83,31.39c1.68,5.64,6.18,11.07,13.02,15.71,5.69,3.86,12.64,6.91,19.67,8.68-.24-1.25-.44-2.48-.59-3.66Z"/>
      <path class="cls-1" d="M71.72,47.03c-.46.25-.93.5-1.4.74-4.92,2.5-10.5,4.44-15.7,5.46-.22.04-.45.08-.68.11-.65.09-1.29.12-1.94.2-.7.09-1.4.16-2.1.21-2.09.17-4.2.21-6.29.12-1.05-.04-2.1-.12-3.14-.22-.02,0-.03,0-.05,0,.2,1.15.47,2.32.77,3.5,1.13.1,2.26.17,3.4.21.89.03,1.77.04,2.66.03.18,0,.36,0,.53,0,.53-.01,1.06-.03,1.59-.05.51-.02,1.06,0,1.56-.1.8-.14,1.62-.21,2.42-.34.85-.13,1.69-.29,2.53-.47,1.75-.37,3.49-.82,5.2-1.33,1.77-.54,3.52-1.15,5.24-1.82,1.73-.68,3.43-1.43,5.09-2.26,1.23-.61,2.43-1.27,3.61-1.96-1.03-.7-2.13-1.37-3.28-2.02Z"/>
      <path class="cls-1" d="M53.42,38.16c.03.21.62,5.11.51,8.48-.05,1.42-.19,3.34-.31,4.86.02,0,.04,0,.06,0,.19-.03.38-.06.57-.09.95-.19,1.91-.41,2.88-.66.13-1.5.17-2.9.21-4.01.23-7.3-2.28-19.58-8.26-29.88-.39.58-.79,1.18-1.17,1.8-.3.48-.58.98-.87,1.48.99,1.81,1.9,3.7,2.71,5.65,1.75,4.2,2.98,8.37,3.68,12.38Z"/>
      <path class="cls-1" d="M90.99,60.44c-1.68-5.64-6.18-11.07-13.02-15.71-5.73-3.89-12.73-6.96-19.82-8.72.25,1.26.45,2.48.61,3.66,3.93,1.09,7.86,2.61,11.48,4.45,8.51,4.32,14.52,9.89,16.92,15.68,2.8,6.75.62,13.8-6.5,20.93-5.11,5.13-10.21,7.73-15.15,7.73-7.05,0-12.72-5.25-16.43-10.08-.45.69-.91,1.37-1.38,2.02-.21.29-.43.59-.66.88,4.16,5.14,10.44,10.56,18.47,10.56,5.87,0,11.78-2.93,17.55-8.72,7.49-7.51,10.16-15.14,7.92-22.67Z"/>
      <path class="cls-1" d="M53.64,58.75c-.38.06-.76.11-1.15.16-.12.02-.24.04-.36.05-.64,2.29-1.44,4.61-2.39,6.91-1.21,2.92-2.62,5.72-4.21,8.3-.5.81-1.02,1.61-1.55,2.37-3.75,5.4-9.87,11.83-17.72,11.83-4.93,0-10.03-2.59-15.14-7.69-7.13-7.12-9.34-14.15-6.54-20.91,1.53-3.71,4.61-7.38,8.89-10.68-.22-.14-.45-.28-.66-.43-.78-.53-1.52-1.06-2.23-1.61C5.79,50.92.64,56.73.06,64.14c-.5,6.33,2.41,12.7,8.67,18.94,5.77,5.76,11.67,8.68,17.53,8.68,9.01,0,15.81-6.78,19.94-12.47.53-.74,1.06-1.51,1.57-2.3,3.48-5.4,6.35-12.12,8.01-18.63-.72.14-1.44.28-2.14.39Z"/>
    </g>
  </g>
</svg>