<svg width="174" height="135" viewBox="0 0 174 135" fill="none" xmlns="http://www.w3.org/2000/svg">
<path d="M5.57813 132.8C3.97813 132.8 2.71146 132.533 1.77813 132C0.978125 131.6 0.578125 131 0.578125 130.2C0.578125 129.133 1.11146 128.4 2.17813 128C3.37813 127.467 4.77813 127 6.37813 126.6C9.57813 125.667 12.3115 123.867 14.5781 121.2C16.8448 118.533 18.2448 115.067 18.7781 110.8C19.8448 102.667 20.8448 93.8 21.7781 84.2C22.8448 74.6 23.7781 64.9333 24.5781 55.2C25.5115 45.4667 26.2448 36.3333 26.7781 27.8C26.7781 26.8667 26.7781 25.8 26.7781 24.6C26.7781 23.4 26.7781 22.2 26.7781 21C26.6448 19 26.2448 17.4 25.5781 16.2C25.0448 14.8667 24.0448 13.6667 22.5781 12.6C20.7115 11.2667 18.7781 10.2667 16.7781 9.59999C14.7781 8.79999 12.5115 8.13333 9.97813 7.59999C8.51146 7.33333 7.31146 6.86666 6.37813 6.2C5.57813 5.39999 5.17813 4.46666 5.17813 3.4C5.17813 2.33333 5.71146 1.59999 6.77813 1.19999C7.84479 0.799996 9.24479 0.599999 10.9781 0.599999C12.7115 0.599999 15.0448 0.666665 17.9781 0.799996C20.9115 0.933328 24.0448 1.13333 27.3781 1.39999C30.8448 1.53333 34.2448 1.66666 37.5781 1.8C40.9115 1.93333 43.8448 1.99999 46.3781 1.99999C47.4448 1.99999 48.3781 2.33333 49.1781 2.99999C49.9781 3.66666 50.5115 4.46666 50.7781 5.4C51.5781 7.93333 52.3781 10.4 53.1781 12.8C53.9781 15.2 54.8448 17.7333 55.7781 20.4L85.7781 93.8C86.1781 94.4667 86.7115 94.8667 87.3781 95C88.0448 95 88.5115 94.6667 88.7781 94L120.978 22.4C121.911 18.5333 122.645 15.1333 123.178 12.2C123.845 9.26666 124.445 6.93333 124.978 5.2C125.378 3.46666 126.245 2.6 127.578 2.6H135.778C140.845 2.33333 146.178 1.93332 151.778 1.39999C157.378 0.866662 161.711 0.599999 164.778 0.599999C165.845 0.599999 166.845 0.799996 167.778 1.19999C168.845 1.46666 169.378 2.13333 169.378 3.19999C169.378 4.26666 168.978 5.06666 168.178 5.59999C167.378 6.13333 166.178 6.73333 164.578 7.39999C163.511 7.66666 162.245 8.13332 160.778 8.79999C159.311 9.33332 158.045 9.86666 156.978 10.4C154.178 11.6 152.045 13.1333 150.578 15C149.245 16.8667 148.645 19.5333 148.778 23C148.911 32.4667 149.178 41 149.578 48.6C149.978 56.0667 150.311 63.1333 150.578 69.8C150.978 76.3333 151.445 83.0667 151.978 90C152.511 96.8 152.978 104.333 153.378 112.6C153.645 116.333 155.045 119.267 157.578 121.4C160.245 123.533 163.778 125.133 168.178 126.2C169.778 126.6 171.045 127.067 171.978 127.6C173.045 128.133 173.578 128.933 173.578 130C173.578 130.933 173.111 131.6 172.178 132C171.378 132.4 170.245 132.6 168.778 132.6C165.711 132.6 162.511 132.533 159.178 132.4C155.845 132.267 152.578 132.133 149.378 132C146.311 131.867 143.378 131.8 140.578 131.8C137.911 131.8 135.178 131.867 132.378 132C129.578 132.133 126.711 132.267 123.778 132.4C120.845 132.667 117.778 132.8 114.578 132.8C113.245 132.8 112.045 132.533 110.978 132C110.045 131.6 109.578 131 109.578 130.2C109.578 129.133 110.045 128.267 110.978 127.6C112.045 126.933 113.378 126.467 114.978 126.2C119.511 125.267 122.645 123.867 124.378 122C126.245 120.133 127.045 117 126.778 112.6C126.645 103.933 126.445 95.6 126.178 87.6C125.911 79.6 125.645 71.6667 125.378 63.8C125.111 55.9333 124.778 48 124.378 40C124.245 38.9333 123.911 38.4667 123.378 38.6C122.978 38.6 122.511 39.1333 121.978 40.2L81.1781 132.2C80.6448 133.667 79.7781 134.267 78.5781 134C77.3781 133.867 76.5781 133.267 76.1781 132.2C70.0448 116.733 63.5781 101.467 56.7781 86.4C50.1115 71.2 43.5115 55.8 36.9781 40.2C36.5781 39.1333 35.9781 38.7333 35.1781 39C34.5115 39.2667 34.1115 40 33.9781 41.2C33.3115 48.6667 32.7115 56.4 32.1781 64.4C31.6448 72.2667 31.3115 80.1333 31.1781 88C31.0448 95.8667 30.9781 103.667 30.9781 111.4C30.9781 115 32.1115 118.067 34.3781 120.6C36.7781 123.133 40.3781 125 45.1781 126.2C46.7781 126.467 48.1115 126.933 49.1781 127.6C50.3781 128.133 50.9781 128.933 50.9781 130C50.9781 130.933 50.4448 131.6 49.3781 132C48.3115 132.4 47.1115 132.6 45.7781 132.6C42.1781 132.6 39.4448 132.533 37.5781 132.4C35.7115 132.267 33.9781 132.133 32.3781 132C30.7781 131.867 28.6448 131.8 25.9781 131.8C23.1781 131.8 20.5115 131.867 17.9781 132C15.5781 132.133 13.3115 132.267 11.1781 132.4C9.04479 132.667 7.17813 132.8 5.57813 132.8Z" fill="#363636"/>
</svg>
