<svg width="1190" height="144" viewBox="0 0 1190 144" fill="none" xmlns="http://www.w3.org/2000/svg">
<path d="M5.95313 141.8C4.35313 141.8 3.08646 141.533 2.15313 141C1.35313 140.6 0.953125 140 0.953125 139.2C0.953125 138.133 1.48646 137.4 2.55313 137C3.75313 136.467 5.15313 136 6.75313 135.6C9.95313 134.667 12.6865 132.867 14.9531 130.2C17.2198 127.533 18.6198 124.067 19.1531 119.8C20.2198 111.667 21.2198 102.8 22.1531 93.2C23.2198 83.6 24.1531 73.9333 24.9531 64.2C25.8865 54.4667 26.6198 45.3333 27.1531 36.8C27.1531 35.8667 27.1531 34.8 27.1531 33.6C27.1531 32.4 27.1531 31.2 27.1531 30C27.0198 28 26.6198 26.4 25.9531 25.2C25.4198 23.8667 24.4198 22.6667 22.9531 21.6C21.0865 20.2667 19.1531 19.2667 17.1531 18.6C15.1531 17.8 12.8865 17.1333 10.3531 16.6C8.88646 16.3333 7.68646 15.8667 6.75313 15.2C5.95313 14.4 5.55313 13.4667 5.55313 12.4C5.55313 11.3333 6.08646 10.6 7.15313 10.2C8.21979 9.8 9.61979 9.6 11.3531 9.6C13.0865 9.6 15.4198 9.66666 18.3531 9.8C21.2865 9.93333 24.4198 10.1333 27.7531 10.4C31.2198 10.5333 34.6198 10.6667 37.9531 10.8C41.2865 10.9333 44.2198 11 46.7531 11C47.8198 11 48.7531 11.3333 49.5531 12C50.3531 12.6667 50.8865 13.4667 51.1531 14.4C51.9531 16.9333 52.7531 19.4 53.5531 21.8C54.3531 24.2 55.2198 26.7333 56.1531 29.4L86.1531 102.8C86.5531 103.467 87.0865 103.867 87.7531 104C88.4198 104 88.8865 103.667 89.1531 103L121.353 31.4C122.286 27.5333 123.02 24.1333 123.553 21.2C124.22 18.2667 124.82 15.9333 125.353 14.2C125.753 12.4667 126.62 11.6 127.953 11.6H136.153C141.22 11.3333 146.553 10.9333 152.153 10.4C157.753 9.86666 162.086 9.6 165.153 9.6C166.22 9.6 167.22 9.8 168.153 10.2C169.22 10.4667 169.753 11.1333 169.753 12.2C169.753 13.2667 169.353 14.0667 168.553 14.6C167.753 15.1333 166.553 15.7333 164.953 16.4C163.886 16.6667 162.62 17.1333 161.153 17.8C159.686 18.3333 158.42 18.8667 157.353 19.4C154.553 20.6 152.42 22.1333 150.953 24C149.62 25.8667 149.02 28.5333 149.153 32C149.286 41.4667 149.553 50 149.953 57.6C150.353 65.0667 150.686 72.1333 150.953 78.8C151.353 85.3333 151.82 92.0667 152.353 99C152.886 105.8 153.353 113.333 153.753 121.6C154.02 125.333 155.42 128.267 157.953 130.4C160.62 132.533 164.153 134.133 168.553 135.2C170.153 135.6 171.42 136.067 172.353 136.6C173.42 137.133 173.953 137.933 173.953 139C173.953 139.933 173.486 140.6 172.553 141C171.753 141.4 170.62 141.6 169.153 141.6C166.086 141.6 162.886 141.533 159.553 141.4C156.22 141.267 152.953 141.133 149.753 141C146.686 140.867 143.753 140.8 140.953 140.8C138.286 140.8 135.553 140.867 132.753 141C129.953 141.133 127.086 141.267 124.153 141.4C121.22 141.667 118.153 141.8 114.953 141.8C113.62 141.8 112.42 141.533 111.353 141C110.42 140.6 109.953 140 109.953 139.2C109.953 138.133 110.42 137.267 111.353 136.6C112.42 135.933 113.753 135.467 115.353 135.2C119.886 134.267 123.02 132.867 124.753 131C126.62 129.133 127.42 126 127.153 121.6C127.02 112.933 126.82 104.6 126.553 96.6C126.286 88.6 126.02 80.6667 125.753 72.8C125.486 64.9333 125.153 57 124.753 49C124.62 47.9333 124.286 47.4667 123.753 47.6C123.353 47.6 122.886 48.1333 122.353 49.2L81.5531 141.2C81.0198 142.667 80.1531 143.267 78.9531 143C77.7531 142.867 76.9531 142.267 76.5531 141.2C70.4198 125.733 63.9531 110.467 57.1531 95.4C50.4865 80.2 43.8865 64.8 37.3531 49.2C36.9531 48.1333 36.3531 47.7333 35.5531 48C34.8865 48.2667 34.4865 49 34.3531 50.2C33.6865 57.6667 33.0865 65.4 32.5531 73.4C32.0198 81.2667 31.6865 89.1333 31.5531 97C31.4198 104.867 31.3531 112.667 31.3531 120.4C31.3531 124 32.4865 127.067 34.7531 129.6C37.1531 132.133 40.7531 134 45.5531 135.2C47.1531 135.467 48.4865 135.933 49.5531 136.6C50.7531 137.133 51.3531 137.933 51.3531 139C51.3531 139.933 50.8198 140.6 49.7531 141C48.6865 141.4 47.4865 141.6 46.1531 141.6C42.5531 141.6 39.8198 141.533 37.9531 141.4C36.0865 141.267 34.3531 141.133 32.7531 141C31.1531 140.867 29.0198 140.8 26.3531 140.8C23.5531 140.8 20.8865 140.867 18.3531 141C15.9531 141.133 13.6865 141.267 11.5531 141.4C9.41979 141.667 7.55313 141.8 5.95313 141.8ZM204.469 143.8C201.269 143.8 198.202 142.933 195.269 141.2C192.469 139.467 190.202 137.2 188.469 134.4C186.735 131.6 185.869 128.733 185.869 125.8C185.869 121.267 187.202 117.6 189.869 114.8C192.535 111.867 196.535 109.267 201.869 107L220.469 99C223.135 97.9333 224.735 96.9333 225.269 96C225.935 95.0667 226.269 93.3333 226.269 90.8L226.669 79C226.802 75.2667 226.002 72.2667 224.269 70C222.669 67.7333 220.202 66.6 216.869 66.6C215.135 66.6 213.335 66.9333 211.469 67.6C209.602 68.2667 208.135 69.1333 207.069 70.2C206.535 70.7333 206.135 71.4667 205.869 72.4C205.735 73.2 205.669 74 205.669 74.8C205.669 75.4667 205.669 76.3333 205.669 77.4C205.802 78.3333 205.869 79.2 205.869 80C205.869 80.8 204.869 81.8 202.869 83C200.869 84.2 198.602 85.2667 196.069 86.2C193.535 87.1333 191.402 87.6 189.669 87.6C188.735 87.6 188.002 87.2667 187.469 86.6C186.935 85.9333 186.669 85.1333 186.669 84.2C186.669 82.0667 187.335 79.9333 188.669 77.8C190.135 75.5333 192.402 73.1333 195.469 70.6C198.802 67.8 202.469 65.3333 206.469 63.2C210.469 60.9333 214.335 59.1333 218.069 57.8C221.935 56.4667 225.269 55.8 228.069 55.8C234.469 55.8 239.602 57.9333 243.469 62.2C247.335 66.3333 249.202 71.8 249.069 78.6L248.069 121.4C247.935 124.333 248.469 126.8 249.669 128.8C251.002 130.8 252.602 131.8 254.469 131.8C257.269 131.8 259.535 131 261.269 129.4C261.802 128.867 262.269 128.6 262.669 128.6C263.335 128.6 263.869 128.867 264.269 129.4C264.802 129.8 265.069 130.333 265.069 131C265.069 132.467 264.002 134.267 261.869 136.4C259.469 138.8 256.869 140.6 254.069 141.8C251.402 143.133 248.735 143.8 246.069 143.8C239.002 143.8 233.269 140.133 228.869 132.8H228.269C223.869 136.667 219.802 139.467 216.069 141.2C212.469 142.933 208.602 143.8 204.469 143.8ZM215.469 131.8C217.335 131.8 218.935 131.533 220.269 131C221.602 130.333 222.735 129.467 223.669 128.4C224.202 127.733 224.602 126.933 224.869 126C225.269 125.067 225.535 123.733 225.669 122L226.069 109.2C226.202 107.867 226.069 107 225.669 106.6C225.269 106.067 224.802 105.8 224.269 105.8C224.002 105.8 223.602 105.867 223.069 106C222.535 106 221.935 106.2 221.269 106.6C216.335 108.6 212.802 110.733 210.669 113C208.535 115.267 207.469 118.2 207.469 121.8C207.469 125.4 208.335 128 210.069 129.6C211.802 131.067 213.602 131.8 215.469 131.8ZM300.03 143.8C295.763 143.8 291.63 143.2 287.63 142C283.763 140.933 280.23 139.267 277.03 137C276.096 135.133 275.363 132.2 274.83 128.2C274.43 124.2 274.23 120.267 274.23 116.4C274.23 114.8 275.363 114 277.63 114C278.563 114 279.363 114.267 280.03 114.8C280.696 115.333 281.163 115.933 281.43 116.6C283.696 122.467 286.563 127.2 290.03 130.8C293.496 134.267 297.43 136 301.83 136C305.563 136 308.496 134.867 310.63 132.6C312.763 130.2 313.83 127.467 313.83 124.4C313.83 120.8 312.496 117.8 309.83 115.4C307.296 113 303.763 110.533 299.23 108C295.096 105.733 291.363 103.333 288.03 100.8C284.83 98.2667 282.296 95.4 280.43 92.2C278.563 88.8667 277.63 85 277.63 80.6C277.63 75.6667 278.896 71.3333 281.43 67.6C283.963 63.8667 287.496 60.9333 292.03 58.8C296.696 56.6667 302.03 55.6 308.03 55.6C312.296 55.6 316.096 56.0667 319.43 57C322.896 57.9333 325.296 58.8667 326.63 59.8C327.696 61.1333 328.563 63.6 329.23 67.2C329.896 70.6667 330.23 74.3333 330.23 78.2C330.23 79.4 329.23 80 327.23 80C326.296 80 325.363 79.7333 324.43 79.2C323.496 78.6667 322.896 78.1333 322.63 77.6C320.896 72.6667 318.696 68.9333 316.03 66.4C313.363 63.8667 310.296 62.6 306.83 62.6C303.763 62.6 300.963 63.6 298.43 65.6C296.03 67.4667 294.83 70.1333 294.83 73.6C294.83 76.4 295.963 78.9333 298.23 81.2C300.63 83.4667 304.03 85.8 308.43 88.2C316.83 92.7333 322.896 97.0667 326.63 101.2C330.363 105.2 332.23 110.6 332.23 117.4C332.23 125.533 329.43 132 323.83 136.8C318.23 141.467 310.296 143.8 300.03 143.8ZM366.961 143.8C363.761 143.8 360.694 142.933 357.761 141.2C354.961 139.467 352.694 137.2 350.961 134.4C349.228 131.6 348.361 128.733 348.361 125.8C348.361 121.267 349.694 117.6 352.361 114.8C355.028 111.867 359.028 109.267 364.361 107L382.961 99C385.628 97.9333 387.228 96.9333 387.761 96C388.428 95.0667 388.761 93.3333 388.761 90.8L389.161 79C389.294 75.2667 388.494 72.2667 386.761 70C385.161 67.7333 382.694 66.6 379.361 66.6C377.628 66.6 375.828 66.9333 373.961 67.6C372.094 68.2667 370.628 69.1333 369.561 70.2C369.028 70.7333 368.628 71.4667 368.361 72.4C368.228 73.2 368.161 74 368.161 74.8C368.161 75.4667 368.161 76.3333 368.161 77.4C368.294 78.3333 368.361 79.2 368.361 80C368.361 80.8 367.361 81.8 365.361 83C363.361 84.2 361.094 85.2667 358.561 86.2C356.028 87.1333 353.894 87.6 352.161 87.6C351.228 87.6 350.494 87.2667 349.961 86.6C349.428 85.9333 349.161 85.1333 349.161 84.2C349.161 82.0667 349.828 79.9333 351.161 77.8C352.628 75.5333 354.894 73.1333 357.961 70.6C361.294 67.8 364.961 65.3333 368.961 63.2C372.961 60.9333 376.828 59.1333 380.561 57.8C384.428 56.4667 387.761 55.8 390.561 55.8C396.961 55.8 402.094 57.9333 405.961 62.2C409.828 66.3333 411.694 71.8 411.561 78.6L410.561 121.4C410.428 124.333 410.961 126.8 412.161 128.8C413.494 130.8 415.094 131.8 416.961 131.8C419.761 131.8 422.028 131 423.761 129.4C424.294 128.867 424.761 128.6 425.161 128.6C425.828 128.6 426.361 128.867 426.761 129.4C427.294 129.8 427.561 130.333 427.561 131C427.561 132.467 426.494 134.267 424.361 136.4C421.961 138.8 419.361 140.6 416.561 141.8C413.894 143.133 411.228 143.8 408.561 143.8C401.494 143.8 395.761 140.133 391.361 132.8H390.761C386.361 136.667 382.294 139.467 378.561 141.2C374.961 142.933 371.094 143.8 366.961 143.8ZM377.961 131.8C379.828 131.8 381.428 131.533 382.761 131C384.094 130.333 385.228 129.467 386.161 128.4C386.694 127.733 387.094 126.933 387.361 126C387.761 125.067 388.028 123.733 388.161 122L388.561 109.2C388.694 107.867 388.561 107 388.161 106.6C387.761 106.067 387.294 105.8 386.761 105.8C386.494 105.8 386.094 105.867 385.561 106C385.028 106 384.428 106.2 383.761 106.6C378.828 108.6 375.294 110.733 373.161 113C371.028 115.267 369.961 118.2 369.961 121.8C369.961 125.4 370.828 128 372.561 129.6C374.294 131.067 376.094 131.8 377.961 131.8ZM438.522 141.6C435.722 141.6 434.322 140.733 434.322 139C434.322 137.933 434.722 137.2 435.522 136.8C436.455 136.267 437.589 135.733 438.922 135.2C440.922 134.533 442.722 133.8 444.322 133C446.055 132.067 446.922 130.2 446.922 127.4V30C446.922 25.8667 446.322 22.6 445.122 20.2C444.055 17.8 441.855 16.2667 438.522 15.6C437.189 15.3333 436.522 14.3333 436.522 12.6C436.522 11 437.122 10.0667 438.322 9.8C441.789 9.13333 445.255 8.2 448.722 7C452.189 5.8 455.455 4.6 458.522 3.4C461.589 2.19999 464.122 1.26666 466.122 0.599996C467.189 0.199993 467.989 -8.58307e-06 468.522 -8.58307e-06C469.189 -8.58307e-06 469.655 0.199993 469.922 0.599996C470.189 0.99999 470.322 1.53332 470.322 2.2C470.322 3.39999 470.122 5.53332 469.722 8.59999C469.322 11.5333 469.055 15.4 468.922 20.2L469.122 92C469.122 93.4667 469.589 94.2 470.522 94.2C471.055 94.2 471.722 94 472.522 93.6C473.455 93.2 474.322 92.6 475.122 91.8C480.189 87.4 484.589 83.1333 488.322 79C492.189 74.8667 494.789 71.8667 496.122 70C496.789 69.2 497.255 68.5333 497.522 68C497.789 67.4667 497.922 67 497.922 66.6C497.922 65.9333 497.389 65.3333 496.322 64.8C495.255 64.1333 493.789 63.6667 491.922 63.4C490.322 63 489.522 62.2 489.522 61C489.522 60.0667 489.989 59.4 490.922 59C491.855 58.6 492.855 58.4 493.922 58.4H503.722C505.989 58.4 508.789 58.2667 512.122 58C515.589 57.7333 518.855 57.4667 521.922 57.2C525.122 56.8 527.522 56.5333 529.122 56.4C530.722 56.4 531.522 57.1333 531.522 58.6C531.522 59.5333 531.055 60.3333 530.122 61C529.322 61.6667 528.189 62.2 526.722 62.6C524.322 63.1333 521.722 64.0667 518.922 65.4C516.255 66.6 513.522 68 510.722 69.6C508.989 70.5333 506.789 72 504.122 74C501.455 76 498.655 78.2 495.722 80.6C492.922 82.8667 490.322 85.1333 487.922 87.4C487.255 88.0667 486.922 88.7333 486.922 89.4C486.922 89.8 486.989 90.1333 487.122 90.4C487.389 90.6667 487.655 91 487.922 91.4C491.255 95.5333 494.522 99.6667 497.722 103.8C501.055 107.933 504.255 111.8 507.322 115.4C510.389 119 513.122 122.2 515.522 125C517.789 127.267 520.455 129.4 523.522 131.4C526.722 133.267 529.322 134.533 531.322 135.2C532.655 135.733 533.922 136.267 535.122 136.8C536.455 137.2 537.122 137.933 537.122 139C537.122 140.733 535.722 141.6 532.922 141.6C525.722 141.6 518.455 141.467 511.122 141.2C503.922 141.067 496.989 141 490.322 141C487.789 141 486.522 140.2 486.522 138.6C486.522 137.667 486.855 136.933 487.522 136.4C488.322 135.733 489.322 135.2 490.522 134.8C491.722 134.4 492.655 133.933 493.322 133.4C493.989 132.733 494.389 132 494.522 131.2C494.522 130.667 494.322 130.133 493.922 129.6C493.522 128.933 492.989 128.133 492.322 127.2L471.522 100.4C470.989 99.7333 470.522 99.4 470.122 99.4C469.455 99.5333 469.122 100.067 469.122 101C468.989 102.867 468.922 104.867 468.922 107C468.922 109.133 468.922 111.267 468.922 113.4C468.922 115.667 468.922 118 468.922 120.4C468.922 122.8 468.989 125.133 469.122 127.4C469.122 129.8 469.655 131.533 470.722 132.6C471.789 133.667 473.322 134.533 475.322 135.2C476.389 135.6 477.389 136.067 478.322 136.6C479.255 137 479.722 137.733 479.722 138.8C479.722 139.733 479.255 140.467 478.322 141C477.389 141.4 476.522 141.6 475.722 141.6C473.189 141.6 470.989 141.467 469.122 141.2C467.255 141.067 465.455 140.933 463.722 140.8C461.989 140.667 459.922 140.6 457.522 140.6C455.255 140.6 453.189 140.667 451.322 140.8C449.455 140.933 447.522 141.067 445.522 141.2C443.522 141.467 441.189 141.6 438.522 141.6ZM564.219 143.8C561.019 143.8 557.952 142.933 555.019 141.2C552.219 139.467 549.952 137.2 548.219 134.4C546.485 131.6 545.619 128.733 545.619 125.8C545.619 121.267 546.952 117.6 549.619 114.8C552.285 111.867 556.285 109.267 561.619 107L580.219 99C582.885 97.9333 584.485 96.9333 585.019 96C585.685 95.0667 586.019 93.3333 586.019 90.8L586.419 79C586.552 75.2667 585.752 72.2667 584.019 70C582.419 67.7333 579.952 66.6 576.619 66.6C574.885 66.6 573.085 66.9333 571.219 67.6C569.352 68.2667 567.885 69.1333 566.819 70.2C566.285 70.7333 565.885 71.4667 565.619 72.4C565.485 73.2 565.419 74 565.419 74.8C565.419 75.4667 565.419 76.3333 565.419 77.4C565.552 78.3333 565.619 79.2 565.619 80C565.619 80.8 564.619 81.8 562.619 83C560.619 84.2 558.352 85.2667 555.819 86.2C553.285 87.1333 551.152 87.6 549.419 87.6C548.485 87.6 547.752 87.2667 547.219 86.6C546.685 85.9333 546.419 85.1333 546.419 84.2C546.419 82.0667 547.085 79.9333 548.419 77.8C549.885 75.5333 552.152 73.1333 555.219 70.6C558.552 67.8 562.219 65.3333 566.219 63.2C570.219 60.9333 574.085 59.1333 577.819 57.8C581.685 56.4667 585.019 55.8 587.819 55.8C594.219 55.8 599.352 57.9333 603.219 62.2C607.085 66.3333 608.952 71.8 608.819 78.6L607.819 121.4C607.685 124.333 608.219 126.8 609.419 128.8C610.752 130.8 612.352 131.8 614.219 131.8C617.019 131.8 619.285 131 621.019 129.4C621.552 128.867 622.019 128.6 622.419 128.6C623.085 128.6 623.619 128.867 624.019 129.4C624.552 129.8 624.819 130.333 624.819 131C624.819 132.467 623.752 134.267 621.619 136.4C619.219 138.8 616.619 140.6 613.819 141.8C611.152 143.133 608.485 143.8 605.819 143.8C598.752 143.8 593.019 140.133 588.619 132.8H588.019C583.619 136.667 579.552 139.467 575.819 141.2C572.219 142.933 568.352 143.8 564.219 143.8ZM575.219 131.8C577.085 131.8 578.685 131.533 580.019 131C581.352 130.333 582.485 129.467 583.419 128.4C583.952 127.733 584.352 126.933 584.619 126C585.019 125.067 585.285 123.733 585.419 122L585.819 109.2C585.952 107.867 585.819 107 585.419 106.6C585.019 106.067 584.552 105.8 584.019 105.8C583.752 105.8 583.352 105.867 582.819 106C582.285 106 581.685 106.2 581.019 106.6C576.085 108.6 572.552 110.733 570.419 113C568.285 115.267 567.219 118.2 567.219 121.8C567.219 125.4 568.085 128 569.819 129.6C571.552 131.067 573.352 131.8 575.219 131.8ZM758.102 143.8C748.102 143.8 738.635 142.267 729.702 139.2C720.768 136 712.835 131.467 705.902 125.6C699.102 119.733 693.702 112.733 689.702 104.6C685.835 96.3333 683.902 87.2 683.902 77.2C683.902 67.8667 685.835 59.0667 689.702 50.8C693.568 42.5333 699.035 35.2 706.102 28.8C713.168 22.4 721.568 17.4 731.302 13.8C741.168 10.0667 751.968 8.19999 763.702 8.19999C768.235 8.19999 772.502 8.53333 776.502 9.19999C780.635 9.73333 784.635 10.4667 788.502 11.4C792.368 12.2 796.168 13.2667 799.902 14.6C801.368 15.1333 802.502 15.8667 803.302 16.8C804.235 17.7333 804.768 19 804.902 20.6C805.435 24.6 805.835 28.6 806.102 32.6C806.368 36.4667 806.502 40.3333 806.502 44.2C806.635 45.5333 806.168 46.5333 805.102 47.2C804.035 47.7333 802.902 47.8 801.702 47.4C800.502 46.8667 799.635 45.8667 799.102 44.4C798.035 40.6667 796.768 37.2 795.302 34C793.968 30.6667 791.902 27.8667 789.102 25.6C786.035 23.0667 782.168 21.0667 777.502 19.6C772.835 18 767.368 17.2 761.102 17.2C753.902 17.2 747.368 18.6667 741.502 21.6C735.635 24.5333 730.568 28.6 726.302 33.8C722.168 39 718.968 44.8667 716.702 51.4C714.435 57.9333 713.302 64.8 713.302 72C713.302 80.5333 714.302 88.6 716.302 96.2C718.435 103.8 721.568 110.533 725.702 116.4C729.968 122.133 735.102 126.667 741.102 130C747.102 133.2 753.968 134.8 761.702 134.8C771.568 134.8 779.568 132.667 785.702 128.4C791.835 124.133 797.035 117.8 801.302 109.4C802.368 107.267 803.835 106.267 805.702 106.4C807.568 106.4 808.502 107.467 808.502 109.6C808.502 111.2 808.302 113.2 807.902 115.6C807.502 118 806.902 120.6 806.102 123.4C805.435 126.067 804.635 128.733 803.702 131.4C803.168 133 802.502 134.2 801.702 135C800.902 135.8 799.702 136.533 798.102 137.2C793.035 139.333 787.035 140.933 780.102 142C773.302 143.2 765.968 143.8 758.102 143.8ZM830.298 141.6C827.632 141.6 826.298 140.733 826.298 139C826.298 137.533 827.832 136.267 830.898 135.2C832.898 134.533 834.698 133.8 836.298 133C838.032 132.067 838.898 130.2 838.898 127.4V30C838.898 26.4 838.365 23.2667 837.298 20.6C836.365 17.9333 834.165 16.2667 830.698 15.6C829.365 15.3333 828.698 14.3333 828.698 12.6C828.698 11.1333 829.298 10.2 830.498 9.8C833.165 9.13333 836.232 8.26666 839.698 7.19999C843.298 5.99999 846.765 4.79999 850.098 3.59999C853.565 2.26666 856.365 1.26666 858.498 0.599996C859.432 0.199993 860.098 -8.58307e-06 860.498 -8.58307e-06C861.298 -8.58307e-06 861.832 0.199993 862.098 0.599996C862.365 0.99999 862.498 1.46666 862.498 1.99999C862.498 2.8 862.365 3.86666 862.098 5.2C861.832 6.53333 861.565 8.39999 861.298 10.8C861.165 13.0667 861.098 16.2 861.098 20.2V62.8C861.098 64.4 861.165 65.7333 861.298 66.8C861.432 67.7333 861.765 68.4667 862.298 69C864.298 67.4 866.765 65.6 869.698 63.6C872.632 61.4667 875.965 59.6667 879.698 58.2C883.432 56.6 887.498 55.8 891.898 55.8C898.832 55.8 904.565 58.3333 909.098 63.4C913.765 68.4667 916.098 75.2667 916.098 83.8V126.8C916.098 129.6 916.898 131.533 918.498 132.6C920.098 133.667 921.832 134.533 923.698 135.2C925.165 135.733 926.232 136.267 926.898 136.8C927.698 137.333 928.098 138.067 928.098 139C928.098 140.733 926.698 141.6 923.898 141.6C920.832 141.6 918.365 141.467 916.498 141.2C914.765 141.067 913.098 140.933 911.498 140.8C909.898 140.667 907.698 140.6 904.898 140.6C902.232 140.6 900.098 140.667 898.498 140.8C897.032 140.933 895.498 141.067 893.898 141.2C892.298 141.467 889.965 141.6 886.898 141.6C883.965 141.6 882.498 140.667 882.498 138.8C882.498 137.867 882.898 137.133 883.698 136.6C884.498 136.067 885.498 135.6 886.698 135.2C888.565 134.667 890.232 133.8 891.698 132.6C893.165 131.4 893.898 129.4 893.898 126.6V86.8C893.898 83.7333 893.165 81 891.698 78.6C890.232 76.0667 888.365 74.0667 886.098 72.6C883.965 71.1333 881.632 70.4 879.098 70.4C876.965 70.4 874.565 70.7333 871.898 71.4C869.232 72.0667 866.832 73.2 864.698 74.8C863.232 75.8667 862.232 77.0667 861.698 78.4C861.298 79.6 861.098 81.6 861.098 84.4V127.2C861.232 129.867 861.965 131.733 863.298 132.8C864.765 133.733 866.365 134.533 868.098 135.2C869.432 135.6 870.432 136.067 871.098 136.6C871.898 137.133 872.298 137.867 872.298 138.8C872.298 140.667 871.098 141.6 868.698 141.6C866.032 141.6 863.698 141.467 861.698 141.2C859.698 141.067 857.765 140.933 855.898 140.8C854.165 140.667 852.098 140.6 849.698 140.6C847.432 140.6 845.298 140.667 843.298 140.8C841.432 140.933 839.432 141.067 837.298 141.2C835.298 141.467 832.965 141.6 830.298 141.6ZM943.883 141.6C942.816 141.6 941.949 141.4 941.283 141C940.616 140.467 940.283 139.8 940.283 139C940.283 137.933 940.683 137.133 941.483 136.6C942.283 136.067 943.216 135.667 944.283 135.4C947.483 134.6 949.749 133.733 951.083 132.8C952.549 131.867 953.283 130.267 953.283 128V84.6C953.283 80.3333 952.616 77.1333 951.283 75C949.949 72.8667 947.683 71.5333 944.483 71C943.816 70.8667 943.283 70.5333 942.883 70C942.483 69.3333 942.283 68.6 942.283 67.8C942.283 65.9333 943.016 64.9333 944.483 64.8C950.883 63.4667 956.416 61.6667 961.083 59.4C965.883 57 969.549 55.1333 972.083 53.8C973.949 52.8667 975.149 52.4 975.683 52.4C977.149 52.4 977.883 53.0667 977.883 54.4C977.749 56.2667 977.483 58.8667 977.083 62.2C976.683 65.4 976.283 68.8667 975.883 72.6C975.616 76.2 975.483 79.6 975.483 82.8V127.8C975.483 129.8 976.216 131.333 977.683 132.4C979.149 133.467 981.483 134.467 984.683 135.4C985.749 135.8 986.683 136.267 987.483 136.8C988.283 137.2 988.683 137.933 988.683 139C988.683 140.6 987.549 141.4 985.283 141.4C982.749 141.4 980.283 141.333 977.883 141.2C975.616 141.067 973.349 140.933 971.083 140.8C968.949 140.667 966.683 140.6 964.283 140.6C962.016 140.6 959.816 140.667 957.683 140.8C955.549 140.933 953.349 141.067 951.083 141.2C948.949 141.467 946.549 141.6 943.883 141.6ZM963.883 40.8C960.016 40.8 956.749 39.4667 954.083 36.8C951.416 34.1333 950.083 30.9333 950.083 27.2C950.083 23.0667 951.416 19.6667 954.083 17C956.749 14.3333 960.016 13 963.883 13C967.883 13 971.216 14.3333 973.883 17C976.549 19.6667 977.883 23.0667 977.883 27.2C977.883 30.9333 976.549 34.1333 973.883 36.8C971.216 39.4667 967.883 40.8 963.883 40.8ZM1003.34 141.6C1000.54 141.6 999.142 140.733 999.142 139C999.142 137.933 999.542 137.2 1000.34 136.8C1001.28 136.267 1002.41 135.733 1003.74 135.2C1005.74 134.533 1007.54 133.8 1009.14 133C1010.88 132.067 1011.74 130.2 1011.74 127.4V30C1011.74 25.8667 1011.14 22.6 1009.94 20.2C1008.88 17.8 1006.68 16.2667 1003.34 15.6C1002.01 15.3333 1001.34 14.3333 1001.34 12.6C1001.34 11 1001.94 10.0667 1003.14 9.8C1006.61 9.13333 1010.08 8.2 1013.54 7C1017.01 5.8 1020.28 4.6 1023.34 3.4C1026.41 2.19999 1028.94 1.26666 1030.94 0.599996C1032.01 0.199993 1032.81 -8.58307e-06 1033.34 -8.58307e-06C1034.01 -8.58307e-06 1034.48 0.199993 1034.74 0.599996C1035.01 0.99999 1035.14 1.53332 1035.14 2.2C1035.14 3.39999 1034.94 5.53332 1034.54 8.59999C1034.14 11.5333 1033.88 15.4 1033.74 20.2L1033.94 92C1033.94 93.4667 1034.41 94.2 1035.34 94.2C1035.88 94.2 1036.54 94 1037.34 93.6C1038.28 93.2 1039.14 92.6 1039.94 91.8C1045.01 87.4 1049.41 83.1333 1053.14 79C1057.01 74.8667 1059.61 71.8667 1060.94 70C1061.61 69.2 1062.08 68.5333 1062.34 68C1062.61 67.4667 1062.74 67 1062.74 66.6C1062.74 65.9333 1062.21 65.3333 1061.14 64.8C1060.08 64.1333 1058.61 63.6667 1056.74 63.4C1055.14 63 1054.34 62.2 1054.34 61C1054.34 60.0667 1054.81 59.4 1055.74 59C1056.68 58.6 1057.68 58.4 1058.74 58.4H1068.54C1070.81 58.4 1073.61 58.2667 1076.94 58C1080.41 57.7333 1083.68 57.4667 1086.74 57.2C1089.94 56.8 1092.34 56.5333 1093.94 56.4C1095.54 56.4 1096.34 57.1333 1096.34 58.6C1096.34 59.5333 1095.88 60.3333 1094.94 61C1094.14 61.6667 1093.01 62.2 1091.54 62.6C1089.14 63.1333 1086.54 64.0667 1083.74 65.4C1081.08 66.6 1078.34 68 1075.54 69.6C1073.81 70.5333 1071.61 72 1068.94 74C1066.28 76 1063.48 78.2 1060.54 80.6C1057.74 82.8667 1055.14 85.1333 1052.74 87.4C1052.08 88.0667 1051.74 88.7333 1051.74 89.4C1051.74 89.8 1051.81 90.1333 1051.94 90.4C1052.21 90.6667 1052.48 91 1052.74 91.4C1056.08 95.5333 1059.34 99.6667 1062.54 103.8C1065.88 107.933 1069.08 111.8 1072.14 115.4C1075.21 119 1077.94 122.2 1080.34 125C1082.61 127.267 1085.28 129.4 1088.34 131.4C1091.54 133.267 1094.14 134.533 1096.14 135.2C1097.48 135.733 1098.74 136.267 1099.94 136.8C1101.28 137.2 1101.94 137.933 1101.94 139C1101.94 140.733 1100.54 141.6 1097.74 141.6C1090.54 141.6 1083.28 141.467 1075.94 141.2C1068.74 141.067 1061.81 141 1055.14 141C1052.61 141 1051.34 140.2 1051.34 138.6C1051.34 137.667 1051.68 136.933 1052.34 136.4C1053.14 135.733 1054.14 135.2 1055.34 134.8C1056.54 134.4 1057.48 133.933 1058.14 133.4C1058.81 132.733 1059.21 132 1059.34 131.2C1059.34 130.667 1059.14 130.133 1058.74 129.6C1058.34 128.933 1057.81 128.133 1057.14 127.2L1036.34 100.4C1035.81 99.7333 1035.34 99.4 1034.94 99.4C1034.28 99.5333 1033.94 100.067 1033.94 101C1033.81 102.867 1033.74 104.867 1033.74 107C1033.74 109.133 1033.74 111.267 1033.74 113.4C1033.74 115.667 1033.74 118 1033.74 120.4C1033.74 122.8 1033.81 125.133 1033.94 127.4C1033.94 129.8 1034.48 131.533 1035.54 132.6C1036.61 133.667 1038.14 134.533 1040.14 135.2C1041.21 135.6 1042.21 136.067 1043.14 136.6C1044.08 137 1044.54 137.733 1044.54 138.8C1044.54 139.733 1044.08 140.467 1043.14 141C1042.21 141.4 1041.34 141.6 1040.54 141.6C1038.01 141.6 1035.81 141.467 1033.94 141.2C1032.08 141.067 1030.28 140.933 1028.54 140.8C1026.81 140.667 1024.74 140.6 1022.34 140.6C1020.08 140.6 1018.01 140.667 1016.14 140.8C1014.28 140.933 1012.34 141.067 1010.34 141.2C1008.34 141.467 1006.01 141.6 1003.34 141.6ZM1129.04 143.8C1125.84 143.8 1122.77 142.933 1119.84 141.2C1117.04 139.467 1114.77 137.2 1113.04 134.4C1111.31 131.6 1110.44 128.733 1110.44 125.8C1110.44 121.267 1111.77 117.6 1114.44 114.8C1117.11 111.867 1121.11 109.267 1126.44 107L1145.04 99C1147.71 97.9333 1149.31 96.9333 1149.84 96C1150.51 95.0667 1150.84 93.3333 1150.84 90.8L1151.24 79C1151.37 75.2667 1150.57 72.2667 1148.84 70C1147.24 67.7333 1144.77 66.6 1141.44 66.6C1139.71 66.6 1137.91 66.9333 1136.04 67.6C1134.17 68.2667 1132.71 69.1333 1131.64 70.2C1131.11 70.7333 1130.71 71.4667 1130.44 72.4C1130.31 73.2 1130.24 74 1130.24 74.8C1130.24 75.4667 1130.24 76.3333 1130.24 77.4C1130.37 78.3333 1130.44 79.2 1130.44 80C1130.44 80.8 1129.44 81.8 1127.44 83C1125.44 84.2 1123.17 85.2667 1120.64 86.2C1118.11 87.1333 1115.97 87.6 1114.24 87.6C1113.31 87.6 1112.57 87.2667 1112.04 86.6C1111.51 85.9333 1111.24 85.1333 1111.24 84.2C1111.24 82.0667 1111.91 79.9333 1113.24 77.8C1114.71 75.5333 1116.97 73.1333 1120.04 70.6C1123.37 67.8 1127.04 65.3333 1131.04 63.2C1135.04 60.9333 1138.91 59.1333 1142.64 57.8C1146.51 56.4667 1149.84 55.8 1152.64 55.8C1159.04 55.8 1164.17 57.9333 1168.04 62.2C1171.91 66.3333 1173.77 71.8 1173.64 78.6L1172.64 121.4C1172.51 124.333 1173.04 126.8 1174.24 128.8C1175.57 130.8 1177.17 131.8 1179.04 131.8C1181.84 131.8 1184.11 131 1185.84 129.4C1186.37 128.867 1186.84 128.6 1187.24 128.6C1187.91 128.6 1188.44 128.867 1188.84 129.4C1189.37 129.8 1189.64 130.333 1189.64 131C1189.64 132.467 1188.57 134.267 1186.44 136.4C1184.04 138.8 1181.44 140.6 1178.64 141.8C1175.97 143.133 1173.31 143.8 1170.64 143.8C1163.57 143.8 1157.84 140.133 1153.44 132.8H1152.84C1148.44 136.667 1144.37 139.467 1140.64 141.2C1137.04 142.933 1133.17 143.8 1129.04 143.8ZM1140.04 131.8C1141.91 131.8 1143.51 131.533 1144.84 131C1146.17 130.333 1147.31 129.467 1148.24 128.4C1148.77 127.733 1149.17 126.933 1149.44 126C1149.84 125.067 1150.11 123.733 1150.24 122L1150.64 109.2C1150.77 107.867 1150.64 107 1150.24 106.6C1149.84 106.067 1149.37 105.8 1148.84 105.8C1148.57 105.8 1148.17 105.867 1147.64 106C1147.11 106 1146.51 106.2 1145.84 106.6C1140.91 108.6 1137.37 110.733 1135.24 113C1133.11 115.267 1132.04 118.2 1132.04 121.8C1132.04 125.4 1132.91 128 1134.64 129.6C1136.37 131.067 1138.17 131.8 1140.04 131.8Z" />
</svg>
