<svg width="59" height="89" viewBox="0 0 59 89" fill="none" xmlns="http://www.w3.org/2000/svg">
<path d="M26.0688 88.8C21.8021 88.8 17.6688 88.2 13.6688 87C9.80208 85.9333 6.26875 84.2667 3.06875 82C2.13542 80.1333 1.40208 77.2 0.86875 73.2C0.46875 69.2 0.26875 65.2667 0.26875 61.4C0.26875 59.8 1.40208 59 3.66875 59C4.60208 59 5.40208 59.2667 6.06875 59.8C6.73542 60.3333 7.20208 60.9333 7.46875 61.6C9.73542 67.4667 12.6021 72.2 16.0688 75.8C19.5354 79.2667 23.4688 81 27.8688 81C31.6021 81 34.5354 79.8667 36.6688 77.6C38.8021 75.2 39.8688 72.4667 39.8688 69.4C39.8688 65.8 38.5354 62.8 35.8688 60.4C33.3354 58 29.8021 55.5333 25.2688 53C21.1354 50.7333 17.4021 48.3333 14.0688 45.8C10.8688 43.2667 8.33542 40.4 6.46875 37.2C4.60208 33.8667 3.66875 30 3.66875 25.6C3.66875 20.6667 4.93542 16.3333 7.46875 12.6C10.0021 8.86666 13.5354 5.93333 18.0688 3.8C22.7354 1.66666 28.0688 0.599997 34.0688 0.599997C38.3354 0.599997 42.1354 1.06666 45.4688 2C48.9354 2.93333 51.3354 3.86666 52.6688 4.8C53.7354 6.13333 54.6021 8.6 55.2688 12.2C55.9354 15.6667 56.2688 19.3333 56.2688 23.2C56.2688 24.4 55.2688 25 53.2687 25C52.3354 25 51.4021 24.7333 50.4688 24.2C49.5354 23.6667 48.9354 23.1333 48.6688 22.6C46.9354 17.6667 44.7354 13.9333 42.0688 11.4C39.4021 8.86666 36.3354 7.6 32.8688 7.6C29.8021 7.6 27.0021 8.6 24.4688 10.6C22.0688 12.4667 20.8687 15.1333 20.8687 18.6C20.8687 21.4 22.0021 23.9333 24.2688 26.2C26.6688 28.4667 30.0688 30.8 34.4688 33.2C42.8688 37.7333 48.9354 42.0667 52.6688 46.2C56.4021 50.2 58.2688 55.6 58.2688 62.4C58.2688 70.5333 55.4688 77 49.8688 81.8C44.2688 86.4667 36.3354 88.8 26.0688 88.8Z" fill="#363636"/>
</svg>
